<mxfile host="app.diagrams.net" modified="2024-02-21T08:09:31.881Z" agent="Mozilla/5.0 (Windows NT 10.0; Win64; x64) AppleWebKit/537.36 (KHTML, like Gecko) Chrome/121.0.0.0 Safari/537.36" etag="81rnUmvuHVy-ffllu6h-" version="23.1.5" type="github">
  <diagram name="第 1 页" id="CUIfbz3CLsCVGXmxVW59">
    <mxGraphModel dx="1434" dy="758" grid="1" gridSize="10" guides="1" tooltips="1" connect="1" arrows="1" fold="1" page="1" pageScale="1" pageWidth="827" pageHeight="1169" math="0" shadow="0">
      <root>
        <mxCell id="0" />
        <mxCell id="1" parent="0" />
        <mxCell id="Z0QwcIs4Sw965_IRnIzo-2" value="&lt;h1&gt;代码复用率低&lt;/h1&gt;&lt;p&gt;React 选型碎片化，基础 等&lt;/p&gt;" style="text;html=1;spacing=5;spacingTop=-20;whiteSpace=wrap;overflow=hidden;rounded=0;" vertex="1" parent="1">
          <mxGeometry x="80" y="40" width="240" height="110" as="geometry" />
        </mxCell>
      </root>
    </mxGraphModel>
  </diagram>
</mxfile>
